<svg xmlns="http://www.w3.org/2000/svg" viewBox="0 0 400 200">
  <rect width="400" height="200" fill="#fafafa"/>

  <!-- Axes -->
  <line x1="40" y1="170" x2="380" y2="170" stroke="#333" stroke-width="1.5"/>
  <line x1="40" y1="30" x2="40" y2="170" stroke="#333" stroke-width="1.5"/>

  <!-- Axis labels -->
  <text x="210" y="195" font-family="serif" font-size="14" text-anchor="middle" font-style="italic">x</text>
  <text x="20" y="100" font-family="serif" font-size="14" text-anchor="middle" font-style="italic">|psi|^2</text>

  <!-- Grid lines -->
  <g stroke="#ddd" stroke-width="0.5">
    <line x1="40" y1="100" x2="380" y2="100"/>
    <line x1="40" y1="65" x2="380" y2="65"/>
    <line x1="40" y1="135" x2="380" y2="135"/>
    <line x1="125" y1="30" x2="125" y2="170"/>
    <line x1="210" y1="30" x2="210" y2="170"/>
    <line x1="295" y1="30" x2="295" y2="170"/>
  </g>

  <!-- n=1 ground state wavefunction (sin^2 shape) -->
  <path d="M 40 170
           Q 80 170, 100 140
           Q 125 80, 150 50
           Q 175 35, 210 35
           Q 245 35, 270 50
           Q 295 80, 320 140
           Q 340 170, 380 170"
        fill="none" stroke="#2563eb" stroke-width="2.5"/>

  <!-- Box boundaries -->
  <line x1="40" y1="30" x2="40" y2="170" stroke="#333" stroke-width="2"/>
  <line x1="380" y1="30" x2="380" y2="170" stroke="#333" stroke-width="2"/>

  <!-- Labels -->
  <text x="35" y="185" font-family="serif" font-size="12" text-anchor="middle">0</text>
  <text x="380" y="185" font-family="serif" font-size="12" text-anchor="middle" font-style="italic">L</text>
  <text x="210" y="25" font-family="serif" font-size="13" text-anchor="middle" font-style="italic">n = 1</text>
</svg>
